<svg width="37" height="37" viewBox="0 0 37 37" fill="none" xmlns="http://www.w3.org/2000/svg">
<path d="M29.4937 4.93322C29.3121 4.94029 29.13 4.96411 28.9493 5.00789L12.3402 8.95842C11.6163 9.12985 11.0004 9.57227 10.6107 10.2062C10.2197 10.8401 10.1008 11.5876 10.2734 12.3115L12.427 21.3736C12.7316 22.6501 13.8765 23.5127 15.1369 23.5127C15.3491 23.5127 15.5655 23.4911 15.7801 23.438L22.3731 21.8699C22.4934 22.1752 22.6733 22.4536 22.9025 22.6885C23.1316 22.9234 23.4053 23.1103 23.7076 23.2381L24.2713 27.7451C24.5777 30.2042 26.6876 32.0666 29.1661 32.0666H33.2997C33.4631 32.0689 33.6254 32.0387 33.777 31.9777C33.9287 31.9168 34.0667 31.8263 34.1831 31.7115C34.2995 31.5968 34.3919 31.4601 34.455 31.3093C34.5181 31.1585 34.5506 30.9967 34.5506 30.8332C34.5506 30.6698 34.5181 30.508 34.455 30.3572C34.3919 30.2064 34.2995 30.0696 34.1831 29.9549C34.0667 29.8401 33.9287 29.7497 33.777 29.6887C33.6254 29.6278 33.4631 29.5976 33.2997 29.5999H29.1661C27.9125 29.5999 26.8736 28.6825 26.7187 27.4391L26.155 22.9322C26.4587 22.7023 26.7051 22.4052 26.8748 22.0642C27.0444 21.7231 27.1328 21.3475 27.133 20.9666C27.1317 20.8909 27.1269 20.8153 27.1186 20.7401L32.3891 19.4875C33.8827 19.1348 34.8099 17.6292 34.4559 16.132L32.3024 7.07469C32.131 6.35072 31.6874 5.73728 31.0522 5.34754C30.5768 5.05432 30.0385 4.912 29.4937 4.93322ZM3.66837 12.9475C3.35474 12.9561 3.05338 13.0822 2.82768 13.3088C2.52551 13.6122 2.40141 14.0494 2.50007 14.4651L4.65359 23.5248C4.75226 23.9404 5.05961 24.2768 5.46537 24.4112C5.59117 24.4531 5.7237 24.4738 5.8532 24.4738C6.13933 24.4738 6.42001 24.3747 6.64571 24.1848L9.3075 21.9566C9.6664 21.6569 9.82554 21.1808 9.717 20.7257L8.28132 14.6867C8.17402 14.2328 7.81742 13.8786 7.36355 13.7713L3.98393 12.9788C3.87879 12.9547 3.77291 12.9446 3.66837 12.9475Z" fill="white"/>
</svg>
