<svg width="30" height="30" viewBox="0 0 30 30" fill="none" xmlns="http://www.w3.org/2000/svg">
<path d="M15.0001 2C9.62473 2 4.99639 5.27036 3.02158 9.9375C2.96764 10.0589 2.93842 10.1898 2.93563 10.3226C2.93284 10.4554 2.95654 10.5875 3.00534 10.711C3.05414 10.8346 3.12707 10.9472 3.21986 11.0422C3.31266 11.1373 3.42346 11.2129 3.5458 11.2647C3.66814 11.3164 3.79957 11.3433 3.93241 11.3437C4.06525 11.3441 4.19684 11.3181 4.3195 11.2671C4.44216 11.2161 4.55343 11.1411 4.64681 11.0467C4.74019 10.9522 4.81381 10.84 4.86338 10.7168C6.53257 6.77194 10.4355 4 15.0001 4C17.6931 4 20.1484 4.96218 22.0606 6.56445C22.1613 6.64888 22.2776 6.71264 22.4029 6.75211C22.5283 6.79157 22.6601 6.80597 22.791 6.79446C22.9219 6.78296 23.0492 6.74579 23.1657 6.68507C23.2822 6.62435 23.3856 6.54128 23.47 6.44059C23.5544 6.3399 23.6182 6.22358 23.6576 6.09825C23.697 5.97293 23.7114 5.84106 23.6998 5.71019C23.6883 5.57932 23.6511 5.452 23.5904 5.3355C23.5296 5.21901 23.4465 5.11562 23.3458 5.03125C21.0881 3.13952 18.1711 2 15.0001 2ZM15.0001 6C13.951 6 12.9394 6.17945 12.0001 6.51172C11.8762 6.55556 11.7621 6.62338 11.6644 6.71131C11.5668 6.79923 11.4873 6.90554 11.4307 7.02416C11.3741 7.14278 11.3415 7.27139 11.3346 7.40265C11.3277 7.5339 11.3467 7.66522 11.3906 7.78912C11.4344 7.91302 11.5023 8.02706 11.5902 8.12474C11.6781 8.22242 11.7845 8.30181 11.9031 8.3584C12.0217 8.41498 12.1503 8.44764 12.2816 8.45451C12.4129 8.46138 12.5442 8.44232 12.6681 8.39844C13.3967 8.1407 14.1792 8 15.0001 8C18.8776 8 22.0001 11.1225 22.0001 15V25C21.9982 25.1325 22.0227 25.2641 22.0721 25.387C22.1215 25.51 22.1949 25.6219 22.2879 25.7163C22.381 25.8107 22.4919 25.8856 22.6141 25.9368C22.7364 25.9879 22.8676 26.0142 23.0001 26.0142C23.1326 26.0142 23.2638 25.9879 23.3861 25.9368C23.5083 25.8856 23.6192 25.8107 23.7123 25.7163C23.8053 25.6219 23.8787 25.51 23.9281 25.387C23.9775 25.2641 24.002 25.1325 24.0001 25V15C24.0001 10.0415 19.9586 6 15.0001 6ZM25.504 8.22461C25.3307 8.22757 25.1611 8.27552 25.0119 8.36377C24.8627 8.45202 24.739 8.57754 24.6529 8.72801C24.5669 8.87848 24.5214 9.04873 24.521 9.22208C24.5205 9.39542 24.5652 9.5659 24.6505 9.7168C25.5103 11.2852 26.0001 13.0814 26.0001 15V22C25.9982 22.1325 26.0227 22.2641 26.0721 22.387C26.1215 22.51 26.1949 22.6219 26.2879 22.7163C26.381 22.8107 26.4919 22.8856 26.6141 22.9368C26.7364 22.9879 26.8676 23.0142 27.0001 23.0142C27.1326 23.0142 27.2638 22.9879 27.3861 22.9368C27.5083 22.8856 27.6192 22.8107 27.7123 22.7163C27.8053 22.6219 27.8787 22.51 27.9281 22.387C27.9775 22.2641 28.002 22.1325 28.0001 22V15C28.0001 12.7406 27.4206 10.6094 26.4044 8.75586C26.3179 8.59287 26.1881 8.45698 26.0291 8.36322C25.8702 8.26946 25.6885 8.22149 25.504 8.22461ZM8.64854 9.07031C8.50327 9.078 8.36143 9.11728 8.23291 9.18542C8.10439 9.25356 7.99228 9.34892 7.9044 9.46484C6.71251 10.9907 6.0001 12.9179 6.0001 15V25C5.99823 25.1325 6.02271 25.2641 6.07212 25.387C6.12153 25.51 6.1949 25.6219 6.28794 25.7163C6.38098 25.8107 6.49186 25.8856 6.61411 25.9368C6.73637 25.9879 6.86758 26.0142 7.0001 26.0142C7.13263 26.0142 7.26383 25.9879 7.38609 25.9368C7.50834 25.8856 7.61922 25.8107 7.71226 25.7163C7.8053 25.6219 7.87867 25.51 7.92808 25.387C7.97749 25.2641 8.00197 25.1325 8.0001 25V15C8.0001 13.3721 8.55245 11.8835 9.48057 10.6953C9.60143 10.5448 9.67616 10.3626 9.69576 10.1706C9.71536 9.97861 9.67899 9.78504 9.59103 9.61325C9.50307 9.44146 9.36728 9.29879 9.20005 9.20245C9.03281 9.10611 8.84127 9.06022 8.64854 9.07031ZM15.0001 10C12.2506 10 10.0001 12.2505 10.0001 15V27C9.99823 27.1325 10.0227 27.2641 10.0721 27.387C10.1215 27.51 10.1949 27.6219 10.2879 27.7163C10.381 27.8107 10.4919 27.8856 10.6141 27.9368C10.7364 27.9879 10.8676 28.0142 11.0001 28.0142C11.1326 28.0142 11.2638 27.9879 11.3861 27.9368C11.5083 27.8856 11.6192 27.8107 11.7123 27.7163C11.8053 27.6219 11.8787 27.51 11.9281 27.387C11.9775 27.2641 12.002 27.1325 12.0001 27V15C12.0001 13.3315 13.3316 12 15.0001 12C16.6686 12 18.0001 13.3315 18.0001 15C18.0001 16.1977 17.9492 17.4479 17.8712 18.6641C17.8617 18.7958 17.8784 18.9281 17.9202 19.0533C17.9621 19.1785 18.0284 19.2942 18.1152 19.3937C18.2021 19.4932 18.3078 19.5745 18.4262 19.6329C18.5446 19.6914 18.6734 19.7258 18.8052 19.7341C18.937 19.7425 19.0691 19.7247 19.194 19.6818C19.3189 19.6388 19.434 19.5716 19.5328 19.4839C19.6315 19.3962 19.7119 19.2898 19.7693 19.1709C19.8267 19.052 19.86 18.9229 19.8673 18.791C19.9473 17.5432 20.0001 16.2543 20.0001 15C20.0001 12.2505 17.7496 10 15.0001 10ZM2.98057 13.1758C2.73309 13.1875 2.4988 13.2907 2.32307 13.4654C2.14734 13.64 2.04269 13.8737 2.0294 14.1211C2.00988 14.4117 2.0001 14.705 2.0001 15V22C1.99823 22.1325 2.02271 22.2641 2.07212 22.387C2.12153 22.51 2.1949 22.6219 2.28794 22.7163C2.38098 22.8107 2.49186 22.8856 2.61411 22.9368C2.73637 22.9879 2.86757 23.0142 3.0001 23.0142C3.13263 23.0142 3.26383 22.9879 3.38609 22.9368C3.50834 22.8856 3.61922 22.8107 3.71226 22.7163C3.8053 22.6219 3.87867 22.51 3.92808 22.387C3.97749 22.2641 4.00197 22.1325 4.0001 22V15C4.0001 14.749 4.00901 14.5013 4.02549 14.2559C4.03703 14.1141 4.0182 13.9715 3.97026 13.8376C3.92231 13.7037 3.84636 13.5816 3.74747 13.4793C3.64857 13.3771 3.52901 13.2972 3.39677 13.2448C3.26452 13.1925 3.12263 13.1689 2.98057 13.1758ZM14.9845 13.9863C14.7196 13.9905 14.4672 14.0995 14.2826 14.2896C14.0981 14.4796 13.9965 14.7351 14.0001 15V21.8379C13.9982 21.9704 14.0227 22.102 14.0721 22.2249C14.1215 22.3479 14.1949 22.4598 14.2879 22.5542C14.381 22.6486 14.4919 22.7235 14.6141 22.7746C14.7364 22.8258 14.8676 22.8521 15.0001 22.8521C15.1326 22.8521 15.2638 22.8258 15.3861 22.7746C15.5083 22.7235 15.6192 22.6486 15.7123 22.5542C15.8053 22.4598 15.8787 22.3479 15.9281 22.2249C15.9775 22.102 16.002 21.9704 16.0001 21.8379V15C16.0019 14.8662 15.9769 14.7334 15.9265 14.6095C15.8761 14.4855 15.8013 14.373 15.7066 14.2784C15.6119 14.1839 15.4992 14.1094 15.3751 14.0592C15.2511 14.009 15.1183 13.9842 14.9845 13.9863ZM18.9845 22.2344C18.7196 22.2385 18.4672 22.3476 18.2826 22.5376C18.0981 22.7277 17.9965 22.9832 18.0001 23.248V27C17.9982 27.1325 18.0227 27.2641 18.0721 27.387C18.1215 27.51 18.1949 27.6219 18.2879 27.7163C18.381 27.8107 18.4919 27.8856 18.6141 27.9368C18.7364 27.9879 18.8676 28.0142 19.0001 28.0142C19.1326 28.0142 19.2638 27.9879 19.3861 27.9368C19.5083 27.8856 19.6192 27.8107 19.7123 27.7163C19.8053 27.6219 19.8787 27.51 19.9281 27.387C19.9775 27.2641 20.002 27.1325 20.0001 27V23.248C20.0019 23.1143 19.9769 22.9815 19.9265 22.8575C19.8761 22.7336 19.8013 22.621 19.7066 22.5265C19.6119 22.432 19.4992 22.3574 19.3751 22.3072C19.2511 22.2571 19.1183 22.2323 18.9845 22.2344ZM15.0274 24.877C14.896 24.8762 14.7656 24.9014 14.6439 24.951C14.5221 25.0007 14.4114 25.0739 14.318 25.1664C14.2245 25.2589 14.1503 25.369 14.0994 25.4902C14.0486 25.6115 14.0221 25.7416 14.0216 25.873L14.0001 26.9805C13.9975 27.1118 14.0209 27.2423 14.0687 27.3646C14.1166 27.4869 14.1881 27.5986 14.2792 27.6933C14.3702 27.788 14.479 27.8638 14.5994 27.9164C14.7197 27.969 14.8492 27.9974 14.9806 28C15.1119 28.0026 15.2424 27.9792 15.3647 27.9314C15.487 27.8835 15.5987 27.812 15.6934 27.7209C15.7881 27.6299 15.8639 27.5211 15.9165 27.4007C15.9691 27.2804 15.9975 27.1509 16.0001 27.0195L16.0216 25.9121C16.0263 25.7784 16.0041 25.645 15.9563 25.52C15.9085 25.395 15.8361 25.2808 15.7434 25.1843C15.6507 25.0878 15.5396 25.0108 15.4166 24.958C15.2936 24.9052 15.1613 24.8777 15.0274 24.877Z" fill="#192536"/>
</svg>
