<svg width="48" height="48" viewBox="0 0 48 48" fill="none" xmlns="http://www.w3.org/2000/svg">
<path fill-rule="evenodd" clip-rule="evenodd" d="M24 46C36.1503 46 46 36.1503 46 24C46 11.8497 36.1503 2 24 2C11.8497 2 2 11.8497 2 24C2 36.1503 11.8497 46 24 46ZM24 42C14.0589 42 6 33.9411 6 24C6 14.0589 14.0589 6 24 6C33.9411 6 42 14.0589 42 24C42 33.9411 33.9411 42 24 42ZM16 14V34C16 35.5709 17.7279 36.5286 19.06 35.696L35.06 25.696C36.3133 24.9127 36.3133 23.0874 35.06 22.304L19.06 12.304C17.7279 11.4715 16 12.4291 16 14Z" fill="white"/>
</svg>
