<?xml version="1.0" encoding="UTF-8"?>
<svg width="770px" height="769px" viewBox="0 0 770 769" version="1.1" xmlns="http://www.w3.org/2000/svg" xmlns:xlink="http://www.w3.org/1999/xlink">
    <title>mini-logo</title>
    <g id="Page-1" stroke="none" stroke-width="1" fill="none" fill-rule="evenodd">
        <g id="mini-logo">
            <g fill-rule="nonzero">
                <rect id="Rectangle" fill="#FFFFFF" x="0.9" y="0.2" width="768.7" height="752.5"></rect>
                <path d="M716.3,768.2 L54.3,768.2 C25.0289083,768.2 1.3,744.471092 1.3,715.2 L1.3,114.1 L1.3,114.1 L385.3,726 L769.3,114.1 L769.3,715.2 C769.3,744.471092 745.571092,768.2 716.3,768.2 Z" id="Path" fill="#B62B2E"></path>
                <polygon id="Path" fill="#162638" points="554.4 106.6 385.3 203.4 216.1 106.6 216.1 311.1 385.3 214.3 554.4 311.1"></polygon>
                <circle id="Oval" fill="#162638" cx="385.3" cy="436.7" r="21.3"></circle>
                <circle id="Oval" fill="#162638" cx="385.3" cy="555.3" r="21.3"></circle>
            </g>
            <path d="M742.458861,13.6394644 C735.810541,10.083904 729.128395,8.5 711.03064,8.5 L58.3221417,8.50074021 C40.7006598,8.54128563 34.1049056,10.1291236 27.5411391,13.6394644 C21.5480349,16.8446116 16.8446116,21.5480349 13.6394644,27.5411391 C10.083904,34.189459 8.5,40.871605 8.5,58.9693596 L8.50074021,709.677858 C8.54128564,727.29934 10.1291236,733.895094 13.6394644,740.458861 C16.8446116,746.451965 21.5480349,751.155388 27.5411391,754.360536 C34.189459,757.916096 40.871605,759.5 58.9693596,759.5 L711.03064,759.5 C729.128395,759.5 735.810541,757.916096 742.458861,754.360536 C748.451965,751.155388 753.155388,746.451965 756.360536,740.458861 C759.916096,733.810541 761.5,727.128395 761.5,709.03064 L761.5,58.9693596 C761.5,40.871605 759.916096,34.189459 756.360536,27.5411391 C753.155388,21.5480349 748.451965,16.8446116 742.458861,13.6394644 Z" id="Rectangle" stroke="#1D1D1E" stroke-width="17"></path>
        </g>
    </g>
</svg>