<svg width="30" height="30" viewBox="0 0 30 30" fill="none" xmlns="http://www.w3.org/2000/svg">
<path d="M25.3617 8.32003C24.9527 6.86103 24.1437 5.70603 22.9567 4.88903C21.4587 3.85703 19.7357 3.49103 18.2477 3.26903C16.1887 2.96203 14.3237 2.91903 12.5477 3.13603C10.8817 3.34003 9.62767 3.66603 8.48267 4.19203C6.23967 5.22203 4.89367 6.89003 4.48267 9.14803C4.28267 10.244 4.14867 11.235 4.07067 12.18C3.89067 14.365 4.05367 16.299 4.56967 18.091C5.07167 19.838 5.94967 21.087 7.25367 21.907C7.58667 22.116 8.01067 22.267 8.42267 22.413C8.62867 22.486 8.82667 22.558 8.99967 22.634V26.164C8.99967 26.626 9.37367 27 9.83567 27C10.0537 27 10.2627 26.915 10.4187 26.763L13.6757 23.595C13.8177 23.433 13.8177 23.433 13.9637 23.43C15.0767 23.408 16.2137 23.365 17.3437 23.304C18.7127 23.229 20.2987 23.097 21.7927 22.474C23.1597 21.903 24.1577 20.997 24.7567 19.782C25.3817 18.514 25.7537 17.14 25.8927 15.583C26.1367 12.845 25.9627 10.469 25.3617 8.32003ZM19.6907 18.74C19.3637 19.275 18.8737 19.645 18.2977 19.885C17.8767 20.061 17.4467 20.024 17.0317 19.848C13.5477 18.374 10.8167 16.05 9.01067 12.711C8.63867 12.023 8.37967 11.274 8.08267 10.547C8.02167 10.397 8.02667 10.222 7.99967 10.059C8.02567 8.88403 8.92667 8.22303 9.83667 8.02303C10.1847 7.94603 10.4927 8.06903 10.7507 8.31603C11.4647 8.99803 12.0297 9.78803 12.4547 10.674C12.6407 11.063 12.5567 11.407 12.2397 11.696C12.1747 11.756 12.1057 11.812 12.0347 11.865C11.3117 12.409 11.2057 12.82 11.5907 13.639C12.2467 15.032 13.3357 15.967 14.7447 16.547C15.1157 16.7 15.4657 16.624 15.7497 16.323C15.7877 16.283 15.8307 16.244 15.8587 16.198C16.4147 15.271 17.2197 15.363 17.9637 15.892C18.4527 16.239 18.9267 16.605 19.4107 16.959C20.1447 17.5 20.1387 18.008 19.6907 18.74ZM15.5107 9.14303C15.3237 9.14303 15.1357 9.15803 14.9517 9.18903C14.6397 9.24203 14.3457 9.03103 14.2937 8.71903C14.2417 8.40803 14.4517 8.11303 14.7637 8.06103C15.0087 8.02103 15.2607 8.00003 15.5107 8.00003C17.9857 8.00003 19.9997 10.014 19.9997 12.489C19.9997 12.74 19.9787 12.992 19.9377 13.237C19.8907 13.516 19.6487 13.714 19.3747 13.714C19.3437 13.714 19.3117 13.712 19.2797 13.706C18.9687 13.653 18.7587 13.359 18.8107 13.048C18.8417 12.866 18.8567 12.678 18.8567 12.49C18.8567 10.644 17.3557 9.14303 15.5107 9.14303ZM17.9997 12.857C17.9997 13.172 17.7437 13.428 17.4287 13.428C17.1137 13.428 16.8577 13.172 16.8577 12.857C16.8577 11.912 16.0887 11.143 15.1437 11.143C14.8287 11.143 14.5727 10.887 14.5727 10.572C14.5727 10.257 14.8287 10.001 15.1437 10.001C16.7177 10 17.9997 11.282 17.9997 12.857ZM21.8457 13.554C21.7857 13.82 21.5507 13.999 21.2887 13.999C21.2467 13.999 21.2037 13.994 21.1617 13.985C20.8537 13.915 20.6607 13.609 20.7307 13.302C20.8137 12.937 20.8557 12.56 20.8557 12.182C20.8557 9.40403 18.5957 7.14303 15.8167 7.14303C15.4377 7.14303 15.0617 7.18503 14.6967 7.26803C14.3907 7.33903 14.0827 7.14503 14.0137 6.83703C13.9437 6.52903 14.1367 6.22303 14.4447 6.15403C14.8927 6.05103 15.3547 6.00003 15.8187 6.00003C19.2267 6.00003 21.9997 8.77303 21.9997 12.181C21.9997 12.645 21.9477 13.107 21.8457 13.554Z" fill="#1D1D1E"/>
</svg>
